G04 DipTrace 3.1.0.1*
G04 BOARD.gbl*
%MOIN*%
G04 #@! TF.FileFunction,Copper,L2,Bot*
G04 #@! TF.Part,Single*
G04 #@! TA.AperFunction,Conductor*
%ADD14C,0.007008*%
G04 #@! TA.AperFunction,CopperBalancing*
%ADD15C,0.025*%
G04 #@! TA.AperFunction,Nonconductor*
%ADD16C,0.006*%
G04 #@! TA.AperFunction,ComponentPad*
%ADD18R,0.066929X0.066929*%
%ADD19C,0.066929*%
G04 #@! TA.AperFunction,ViaPad*
%ADD21C,0.023622*%
%ADD36C,0.006176*%
%FSLAX26Y26*%
G04*
G70*
G90*
G75*
G01*
G04 Bottom*
%LPD*%
X531395Y774988D2*
D14*
X512647D1*
X500148Y787487D1*
Y806235D1*
X587639Y893726D1*
Y999965D1*
X531395Y737492D2*
X550143D1*
X762621Y949970D1*
X531395Y806235D2*
X568891D1*
X762621Y999965D1*
D21*
X531395Y737492D3*
Y774988D3*
Y806235D3*
X762621Y999965D3*
X587639D3*
X762621Y949970D3*
X518597Y1219392D2*
D15*
X550450D1*
X862547D2*
X894042D1*
X510524Y1194524D2*
X577794D1*
X835203D2*
X894042D1*
X498933Y1169655D2*
X605173D1*
X807824D2*
X894042D1*
X515512Y1144786D2*
X632517D1*
X780480D2*
X897307D1*
X518634Y1119917D2*
X659861D1*
X753136D2*
X894257D1*
X510846Y1095049D2*
X687635D1*
X725362D2*
X902188D1*
X498358Y1070180D2*
X914280D1*
X515332Y1045311D2*
X897487D1*
X518705Y1020442D2*
X552747D1*
X622518D2*
X727755D1*
X797490D2*
X894220D1*
X511134Y995573D2*
X547077D1*
X628188D2*
X713293D1*
X803194D2*
X901900D1*
X497748Y970705D2*
X555151D1*
X620150D2*
X688425D1*
X789846D2*
X914890D1*
X515152Y945836D2*
X555151D1*
X620150D2*
X663558D1*
X753424D2*
X897665D1*
X518741Y920967D2*
X555151D1*
X620150D2*
X638689D1*
X728555D2*
X894185D1*
X511420Y896098D2*
X545068D1*
X703688D2*
X901613D1*
X497102Y871230D2*
X520199D1*
X678820D2*
X915500D1*
X653953Y846361D2*
X897881D1*
X629085Y821492D2*
X894150D1*
X604217Y796623D2*
X901325D1*
X572064Y771755D2*
X916146D1*
X473526Y746886D2*
X499638D1*
X559936D2*
X898060D1*
X473348Y722017D2*
X894113D1*
X473168Y697148D2*
X901039D1*
X495811Y672280D2*
X916793D1*
X514542Y647411D2*
X678378D1*
X734621D2*
X898276D1*
X518812Y622542D2*
X651034D1*
X761963D2*
X894077D1*
X512282Y597673D2*
X623690D1*
X789307D2*
X900752D1*
X518885Y572804D2*
X596311D1*
X816688D2*
X917474D1*
X518885Y547936D2*
X568967D1*
X844031D2*
X898491D1*
X518885Y523067D2*
X541623D1*
X871375D2*
X894077D1*
X501041Y584979D2*
X516367D1*
Y497816D1*
X688735Y654421D1*
X692539Y656919D1*
X696688Y658789D1*
X701077Y659988D1*
X705601Y660486D1*
X710147Y660269D1*
X714602Y659344D1*
X718858Y657734D1*
X722810Y655476D1*
X732803Y646778D1*
X907756Y487731D1*
X909686Y487749D1*
X905370Y493917D1*
X901098Y502302D1*
X898192Y511251D1*
X896719Y520545D1*
Y529954D1*
X898192Y539248D1*
X901098Y548197D1*
X905370Y556581D1*
X910902Y564193D1*
X917555Y570846D1*
X923440Y575223D1*
X917555Y579652D1*
X910902Y586306D1*
X905370Y593917D1*
X901098Y602302D1*
X898192Y611251D1*
X896719Y620545D1*
Y629954D1*
X898192Y639248D1*
X901098Y648197D1*
X905370Y656581D1*
X910902Y664193D1*
X917555Y670846D1*
X923440Y675223D1*
X917555Y679652D1*
X910902Y686306D1*
X905370Y693917D1*
X901098Y702302D1*
X898192Y711251D1*
X896719Y720545D1*
Y729954D1*
X898192Y739248D1*
X901098Y748197D1*
X905370Y756581D1*
X910902Y764193D1*
X917555Y770846D1*
X923440Y775223D1*
X917555Y779652D1*
X910902Y786306D1*
X905370Y793917D1*
X901098Y802302D1*
X898192Y811251D1*
X896719Y820545D1*
Y829954D1*
X898192Y839248D1*
X901098Y848197D1*
X905370Y856581D1*
X910902Y864193D1*
X917555Y870846D1*
X923440Y875223D1*
X917555Y879652D1*
X910902Y886306D1*
X905370Y893917D1*
X901098Y902302D1*
X898192Y911251D1*
X896719Y920545D1*
Y929954D1*
X898192Y939248D1*
X901098Y948197D1*
X905370Y956581D1*
X910902Y964193D1*
X917555Y970846D1*
X923440Y975223D1*
X917555Y979652D1*
X910902Y986306D1*
X905370Y993917D1*
X901098Y1002302D1*
X898192Y1011251D1*
X896719Y1020545D1*
Y1029954D1*
X898192Y1039248D1*
X901098Y1048197D1*
X905370Y1056581D1*
X910902Y1064193D1*
X917555Y1070846D1*
X923440Y1075223D1*
X917555Y1079652D1*
X910902Y1086306D1*
X905370Y1093917D1*
X901098Y1102302D1*
X898192Y1111251D1*
X896719Y1120545D1*
Y1129954D1*
X898192Y1139248D1*
X901098Y1148197D1*
X905370Y1156581D1*
X910902Y1164193D1*
X911912Y1165287D1*
X896534Y1165285D1*
Y1252591D1*
X724264Y1096076D1*
X720459Y1093579D1*
X716311Y1091709D1*
X711921Y1090509D1*
X707398Y1090013D1*
X702852Y1090228D1*
X698396Y1091154D1*
X694140Y1092764D1*
X690189Y1095021D1*
X680196Y1103719D1*
X489226Y1277051D1*
X486176D1*
X491650Y1273526D1*
X498804Y1267416D1*
X504915Y1260261D1*
X509832Y1252238D1*
X513433Y1243545D1*
X515629Y1234395D1*
X516367Y1225014D1*
X515629Y1215634D1*
X513433Y1206484D1*
X509832Y1197791D1*
X504915Y1189768D1*
X498804Y1182613D1*
X491650Y1176503D1*
X489462Y1175041D1*
X495346Y1170612D1*
X502000Y1163958D1*
X507531Y1156346D1*
X511803Y1147962D1*
X514710Y1139013D1*
X516182Y1129719D1*
Y1120310D1*
X514710Y1111016D1*
X511803Y1102067D1*
X507531Y1093682D1*
X502000Y1086071D1*
X495346Y1079417D1*
X489462Y1075041D1*
X495346Y1070612D1*
X502000Y1063958D1*
X507531Y1056346D1*
X511803Y1047962D1*
X514710Y1039013D1*
X516182Y1029719D1*
Y1020310D1*
X514710Y1011016D1*
X511803Y1002067D1*
X507531Y993682D1*
X502000Y986071D1*
X495346Y979417D1*
X489462Y975041D1*
X495346Y970612D1*
X502000Y963958D1*
X507531Y956346D1*
X511803Y947962D1*
X514710Y939013D1*
X516182Y929719D1*
Y920310D1*
X514710Y911016D1*
X511803Y902067D1*
X507531Y893682D1*
X502000Y886071D1*
X495346Y879417D1*
X489462Y875041D1*
X495346Y870612D1*
X502000Y863958D1*
X507630Y856169D1*
X557617Y906135D1*
X557635Y976152D1*
X554974Y979948D1*
X552244Y985303D1*
X550387Y991021D1*
X549446Y996959D1*
Y1002970D1*
X550387Y1008908D1*
X552244Y1014626D1*
X554974Y1019982D1*
X558507Y1024845D1*
X562759Y1029097D1*
X567622Y1032630D1*
X572978Y1035360D1*
X578696Y1037217D1*
X584634Y1038157D1*
X590644D1*
X596583Y1037217D1*
X602301Y1035360D1*
X607656Y1032630D1*
X612520Y1029097D1*
X616772Y1024845D1*
X620304Y1019982D1*
X623034Y1014626D1*
X624891Y1008908D1*
X625832Y1002970D1*
Y996959D1*
X624891Y991021D1*
X623034Y985303D1*
X620304Y979948D1*
X617636Y976181D1*
X617643Y897434D1*
X724556Y1004333D1*
X725369Y1008908D1*
X727226Y1014626D1*
X729955Y1019982D1*
X733488Y1024845D1*
X737740Y1029097D1*
X742604Y1032630D1*
X747959Y1035360D1*
X753677Y1037217D1*
X759615Y1038157D1*
X765626D1*
X771564Y1037217D1*
X777282Y1035360D1*
X782638Y1032630D1*
X787501Y1029097D1*
X791753Y1024845D1*
X795286Y1019982D1*
X798016Y1014626D1*
X799873Y1008908D1*
X800814Y1002970D1*
Y996959D1*
X799873Y991021D1*
X798016Y985303D1*
X795286Y979948D1*
X791753Y975084D1*
X787501Y970832D1*
X782638Y967299D1*
X777282Y964570D1*
X771564Y962713D1*
X767016Y961936D1*
X588377Y783420D1*
X584568Y780652D1*
X580373Y778514D1*
X575895Y777060D1*
X571236Y776323D1*
X569706Y774988D1*
X569235Y768995D1*
X567831Y763150D1*
X565530Y757596D1*
X562390Y752470D1*
X558486Y747898D1*
X553913Y743993D1*
X548787Y740853D1*
X543234Y738552D1*
X537388Y737148D1*
X531395Y736677D1*
X525402Y737148D1*
X519556Y738552D1*
X514003Y740853D1*
X508877Y743993D1*
X506929Y745529D1*
X501165Y747268D1*
X496970Y749406D1*
X493161Y752173D1*
X478932Y766270D1*
X477327Y768008D1*
X474933Y767984D1*
X471198Y766932D1*
X470564Y683294D1*
X479350Y680415D1*
X487735Y676143D1*
X495346Y670612D1*
X502000Y663958D1*
X507531Y656346D1*
X511803Y647962D1*
X514710Y639013D1*
X516182Y629719D1*
Y620310D1*
X514710Y611016D1*
X511803Y602067D1*
X507531Y593682D1*
X502000Y586071D1*
X500990Y584976D1*
D18*
X456403Y525014D3*
D19*
Y625014D3*
Y725014D3*
Y825014D3*
Y925014D3*
Y1025014D3*
Y1125014D3*
Y1225014D3*
D18*
X956499Y1225249D3*
D19*
Y1125249D3*
Y1025249D3*
Y925249D3*
Y825249D3*
Y725249D3*
Y625249D3*
Y525249D3*
X500249Y1306499D2*
D16*
X706500Y1118999D1*
X912749Y1306499D1*
X518999D2*
X706500Y1137749D1*
X893999Y1306499D1*
X537749D2*
X706500Y1156500D1*
X875249Y1306499D1*
X868999Y1300249D1*
X556499Y1306499D2*
X706500Y1175248D1*
X856500Y1306499D1*
X575249D2*
X706500Y1193999D1*
X837749Y1306499D1*
X612749D2*
X706500Y1231499D1*
X800249Y1306499D1*
X593999D2*
X706500Y1212749D1*
X818999Y1306499D1*
X912749Y443999D2*
X706499Y631499D1*
X500249Y443999D1*
X894000D2*
X706499Y612748D1*
X519000Y443999D1*
X875249D2*
X706499Y593997D1*
X537749Y443999D1*
X544000Y450248D1*
X856500Y443999D2*
X706499Y575249D1*
X556499Y443999D1*
X837749D2*
X706499Y556499D1*
X575249Y443999D1*
X800249D2*
X706499Y518999D1*
X612749Y443999D1*
X819000D2*
X706499Y537748D1*
X594000Y443999D1*
X771537Y1356382D2*
D36*
X775339Y1360229D1*
X781088Y1362130D1*
X788737D1*
X794485Y1360229D1*
X798332Y1356382D1*
Y1352579D1*
X796386Y1348733D1*
X794485Y1346831D1*
X790682Y1344930D1*
X779186Y1341083D1*
X775339Y1339182D1*
X773438Y1337236D1*
X771537Y1333434D1*
Y1327686D1*
X775339Y1323883D1*
X781088Y1321938D1*
X788737D1*
X794485Y1323883D1*
X798332Y1327686D1*
X759186Y1362130D2*
Y1321938D1*
X741941D1*
X736193Y1323883D1*
X734292Y1325785D1*
X732391Y1329587D1*
Y1335335D1*
X734292Y1339182D1*
X736193Y1341083D1*
X741941Y1342985D1*
X736193Y1344930D1*
X734292Y1346831D1*
X732391Y1350634D1*
Y1354481D1*
X734292Y1358283D1*
X736193Y1360229D1*
X741941Y1362130D1*
X759186D1*
Y1342985D2*
X741941D1*
X720039Y1321938D2*
X693245Y1362086D1*
X654099Y1356382D2*
X657901Y1360229D1*
X663649Y1362130D1*
X671299D1*
X677047Y1360229D1*
X680893Y1356382D1*
Y1352579D1*
X678948Y1348733D1*
X677047Y1346831D1*
X673244Y1344930D1*
X661748Y1341083D1*
X657901Y1339182D1*
X656000Y1337236D1*
X654099Y1333434D1*
Y1327686D1*
X657901Y1323883D1*
X663649Y1321938D1*
X671299D1*
X677047Y1323883D1*
X680893Y1327686D1*
X641747Y1341083D2*
X624503D1*
X618799Y1342985D1*
X616854Y1344930D1*
X614953Y1348733D1*
Y1354481D1*
X616854Y1358283D1*
X618799Y1360229D1*
X624503Y1362130D1*
X641747D1*
Y1321938D1*
M02*
