G04 DipTrace 3.1.0.1*
G04 BOARD.gto*
%MOIN*%
G04 #@! TF.FileFunction,Legend,Top*
G04 #@! TF.Part,Single*
%ADD10C,0.009843*%
%ADD12C,0.003*%
%ADD35C,0.00772*%
%ADD36C,0.006176*%
%FSLAX26Y26*%
G04*
G70*
G90*
G75*
G01*
G04 TopSilk*
%LPD*%
X546280Y1186871D2*
D10*
Y1238013D1*
Y1036887D2*
Y1088029D1*
X721261Y1036887D2*
Y1088029D1*
X406401Y475051D2*
X506403D1*
Y1274978D1*
X406401D1*
Y475051D1*
X1006500Y1275213D2*
X906499D1*
Y475286D1*
X1006500D1*
Y1275213D1*
X645080Y885461D2*
Y672862D1*
X771052Y885461D2*
Y672862D1*
X645080D2*
X771052D1*
X645080Y885461D2*
X688377D1*
X727754D2*
X771052D1*
X688377D2*
G03X727754Y885461I19689J23D01*
G01*
X658642Y653251D2*
D12*
X679642D1*
X661642Y650251D2*
X685875D1*
X654858Y647251D2*
X691330D1*
X649356Y644251D2*
X695874D1*
X645375Y641251D2*
X673642D1*
X679040D2*
X699474D1*
X772642D2*
D3*
X642690Y638251D2*
X676642D1*
X683689D2*
X702835D1*
X770667D2*
X772642D1*
X640642Y635251D2*
X679642D1*
X687310D2*
X707664D1*
X768572D2*
X775064D1*
X647437Y632251D2*
X682642D1*
X690054D2*
X715025D1*
X766246D2*
X776924D1*
X653053Y629251D2*
X685642D1*
X692379D2*
X723596D1*
X763934D2*
X778311D1*
X657494Y626251D2*
X688642D1*
X694642D2*
X697642D1*
X703642D2*
X731488D1*
X761902D2*
X779528D1*
X661176Y623251D2*
X700642D1*
X706642D2*
X738120D1*
X760225D2*
X763178D1*
X769642D2*
X780625D1*
X664474Y620251D2*
X691166D1*
X697642D2*
X713117D1*
X726577D2*
X743446D1*
X758978D2*
X762434D1*
X769653D2*
X781720D1*
X667642Y617251D2*
X693317D1*
X700642D2*
X703642D1*
X710117D2*
X713966D1*
X733470D2*
X747760D1*
X758198D2*
X761658D1*
X769759D2*
X783131D1*
X661986Y614251D2*
X695146D1*
X710966D2*
X715137D1*
X739199D2*
X751642D1*
X757642D2*
X761144D1*
X770153D2*
X784757D1*
X657636Y611251D2*
X696797D1*
X712137D2*
X716486D1*
X743943D2*
X760971D1*
X770977D2*
X786106D1*
X654377Y608251D2*
X698355D1*
X713498D2*
X717929D1*
X747887D2*
X761237D1*
X772128D2*
X786929D1*
X651378Y605251D2*
X699880D1*
X715045D2*
X719413D1*
X751333D2*
X762008D1*
X773370D2*
X787342D1*
X648025Y602251D2*
X701386D1*
X716906D2*
X720984D1*
X754524D2*
X763140D1*
X774418D2*
X787525D1*
X644468Y599251D2*
X676642D1*
X682642D2*
X702891D1*
X719172D2*
X722732D1*
X757599D2*
X764375D1*
X775056D2*
X787599D1*
X641010Y596251D2*
X670642D1*
X676642D2*
X704390D1*
X721642D2*
X724642D1*
X760627D2*
X765428D1*
X775282D2*
X787626D1*
X637642Y593251D2*
X652642D1*
X658642D2*
X667642D1*
X674679D2*
X705893D1*
X763637D2*
X766128D1*
X775035D2*
X787625D1*
X640642Y590251D2*
X649642D1*
X661642D2*
X664642D1*
X672689D2*
X691642D1*
X697642D2*
X707390D1*
X766642D2*
D3*
X774248D2*
X787514D1*
X638782Y587251D2*
X646642D1*
X670757D2*
X682756D1*
X689220D2*
X694642D1*
X700642D2*
X708893D1*
X772908D2*
X787052D1*
X637071Y584251D2*
X643642D1*
X652642D2*
D3*
X669259D2*
X680152D1*
X690348D2*
X710391D1*
X770910D2*
X786026D1*
X635464Y581251D2*
X655642D1*
X661642D2*
D3*
X668315D2*
X677988D1*
X691832D2*
X711893D1*
X768417D2*
X784642D1*
X633921Y578251D2*
X654048D1*
X660257D2*
X661642D1*
X667642D2*
X676257D1*
X693021D2*
X713402D1*
X766123D2*
X786027D1*
X632413Y575251D2*
X637642D1*
X649642D2*
X652642D1*
X659407D2*
X674999D1*
X693730D2*
X700642D1*
X706642D2*
X714998D1*
X764352D2*
X786888D1*
X631002Y572251D2*
X640642D1*
X659076D2*
X674264D1*
X693315D2*
X716796D1*
X762801D2*
X775178D1*
X781642D2*
X787324D1*
X629786Y569251D2*
X643642D1*
X659277D2*
X673902D1*
X693056D2*
X700653D1*
X706689D2*
X718846D1*
X761077D2*
X774434D1*
X781642D2*
X787518D1*
X628729Y566251D2*
X640756D1*
X660023D2*
X673755D1*
X693323D2*
X700782D1*
X706829D2*
X721172D1*
X759013D2*
X773658D1*
X781642D2*
X787596D1*
X627671Y563251D2*
X638143D1*
X649642D2*
D3*
X661156D2*
X673808D1*
X693955D2*
X701099D1*
X708235D2*
X723989D1*
X754168D2*
X773132D1*
X781642D2*
X787626D1*
X626751Y560251D2*
X635887D1*
X648616D2*
X649642D1*
X662493D2*
X674272D1*
X694860D2*
X702602D1*
X712911D2*
X727250D1*
X747461D2*
X772842D1*
X781642D2*
X787636D1*
X626155Y557251D2*
X633780D1*
X647723D2*
X655642D1*
X663919D2*
X675375D1*
X696330D2*
X705894D1*
X718642D2*
X730642D1*
X739642D2*
X772609D1*
X781630D2*
X787640D1*
X625749Y554251D2*
X631642D1*
X640642D2*
D3*
X647155D2*
X653782D1*
X665298D2*
X676989D1*
X698654D2*
X709642D1*
X715642D2*
X772162D1*
X781525D2*
X787641D1*
X625231Y551251D2*
X640642D1*
X646861D2*
X652061D1*
X666503D2*
X678885D1*
X702136D2*
X771318D1*
X781142D2*
X787630D1*
X624457Y548251D2*
X639257D1*
X646728D2*
X650377D1*
X667556D2*
X681275D1*
X706987D2*
X724642D1*
X739642D2*
X770159D1*
X780412D2*
X787524D1*
X623666Y545251D2*
X638384D1*
X646672D2*
X648579D1*
X668601D2*
X684272D1*
X712642D2*
X721642D1*
X733642D2*
X768903D1*
X779537D2*
X787142D1*
X623135Y542251D2*
X637842D1*
X646642D2*
D3*
X669415D2*
X687275D1*
X708088D2*
X748642D1*
X754642D2*
X767749D1*
X778620D2*
X786412D1*
X622854Y539251D2*
X637255D1*
X669861D2*
X689674D1*
X704101D2*
X715642D1*
X721527D2*
X741296D1*
X745642D2*
X748642D1*
X754642D2*
X766704D1*
X777506D2*
X785537D1*
X622726Y536251D2*
X636343D1*
X669226D2*
X691642D1*
X700642D2*
X712642D1*
X724131D2*
X735454D1*
X745642D2*
X748642D1*
X754642D2*
X765538D1*
X776122D2*
X784620D1*
X622673Y533251D2*
X635073D1*
X668203D2*
X687797D1*
X726295D2*
X730642D1*
X745642D2*
X748642D1*
X754642D2*
X764133D1*
X774445D2*
X783518D1*
X622653Y530251D2*
X633468D1*
X649642D2*
X655642D1*
X666824D2*
X684923D1*
X728026D2*
X732490D1*
X745642D2*
X748642D1*
X754642D2*
X762449D1*
X772659D2*
X782227D1*
X622646Y527251D2*
X631642D1*
X640642D2*
X654235D1*
X663103D2*
X682642D1*
X691642D2*
D3*
X729285D2*
X734096D1*
X745642D2*
X748642D1*
X754642D2*
X760660D1*
X771220D2*
X780828D1*
X622643Y524251D2*
X652642D1*
X658642D2*
X694642D1*
X730020D2*
X735320D1*
X745642D2*
X759233D1*
X770258D2*
X779378D1*
X622642Y521251D2*
X699246D1*
X730383D2*
X736144D1*
X745653D2*
X758364D1*
X769438D2*
X778001D1*
X622642Y518251D2*
X704319D1*
X730547D2*
X736884D1*
X745768D2*
X757832D1*
X768426D2*
X776899D1*
X622653Y515251D2*
X709642D1*
X730642D2*
X737760D1*
X746231D2*
X745642D1*
X751642D2*
X757250D1*
X767176D2*
X776215D1*
X622759Y512251D2*
X738600D1*
X747257D2*
X756341D1*
X765676D2*
X775760D1*
X623141Y509251D2*
X665117D1*
X674745D2*
X739193D1*
X748642D2*
X755072D1*
X763683D2*
X775122D1*
X623860Y506251D2*
X659978D1*
X670850D2*
X739642D1*
X745642D2*
X753468D1*
X760927D2*
X773948D1*
X624641Y503251D2*
X655254D1*
X667642D2*
X670642D1*
X680117D2*
X751642D1*
X757642D2*
X772320D1*
X625269Y500251D2*
X650998D1*
X683990D2*
X709630D1*
X715516D2*
X770508D1*
X625930Y497251D2*
X647264D1*
X688380D2*
X709516D1*
X718014D2*
X768369D1*
X626787Y494251D2*
X643913D1*
X693578D2*
X709052D1*
X719807D2*
X765464D1*
X627724Y491251D2*
X640869D1*
X699817D2*
X708027D1*
X720934D2*
X761441D1*
X628733Y488251D2*
X638269D1*
X706642D2*
D3*
X721888D2*
X756132D1*
X630060Y485251D2*
X636269D1*
X723133D2*
X749678D1*
X631642Y482251D2*
X634642D1*
X724642D2*
X742642D1*
X658642Y653251D2*
X661642Y650251D1*
X654858Y647251D1*
X649356Y644251D1*
X645375Y641251D1*
X642690Y638251D1*
X640642Y635251D1*
X647437Y632251D1*
X653053Y629251D1*
X657494Y626251D1*
X661176Y623251D1*
X664474Y620251D1*
X667642Y617251D1*
X661986Y614251D1*
X657636Y611251D1*
X654377Y608251D1*
X651378Y605251D1*
X648025Y602251D1*
X644468Y599251D1*
X641010Y596251D1*
X637642Y593251D1*
X640642Y590251D1*
X638782Y587251D1*
X637071Y584251D1*
X635464Y581251D1*
X633921Y578251D1*
X632413Y575251D1*
X631002Y572251D1*
X629786Y569251D1*
X628729Y566251D1*
X627671Y563251D1*
X626751Y560251D1*
X626155Y557251D1*
X625749Y554251D1*
X625231Y551251D1*
X624457Y548251D1*
X623666Y545251D1*
X623135Y542251D1*
X622854Y539251D1*
X622726Y536251D1*
X622673Y533251D1*
X622653Y530251D1*
X622646Y527251D1*
X622643Y524251D1*
X622642Y521251D1*
Y518251D1*
X622653Y515251D1*
X622759Y512251D1*
X623141Y509251D1*
X623860Y506251D1*
X624641Y503251D1*
X625269Y500251D1*
X625930Y497251D1*
X626787Y494251D1*
X627724Y491251D1*
X628733Y488251D1*
X630060Y485251D1*
X631642Y482251D1*
X679642Y653251D2*
X685875Y650251D1*
X691330Y647251D1*
X695874Y644251D1*
X699474Y641251D1*
X702835Y638251D1*
X707664Y635251D1*
X715025Y632251D1*
X723596Y629251D1*
X731488Y626251D1*
X738120Y623251D1*
X743446Y620251D1*
X747760Y617251D1*
X751642Y614251D1*
X670642Y644251D2*
X673642Y641251D1*
X676642Y638251D1*
X679642Y635251D1*
X682642Y632251D1*
X685642Y629251D1*
X688642Y626251D1*
X673642Y644251D2*
X679040Y641251D1*
X683689Y638251D1*
X687310Y635251D1*
X690054Y632251D1*
X692379Y629251D1*
X694642Y626251D1*
X772642Y641251D2*
X770667Y638251D1*
X768572Y635251D1*
X766246Y632251D1*
X763934Y629251D1*
X761902Y626251D1*
X760225Y623251D1*
X758978Y620251D1*
X758198Y617251D1*
X757642Y614251D1*
X772642Y638251D2*
X775064Y635251D1*
X776924Y632251D1*
X778311Y629251D1*
X779528Y626251D1*
X780625Y623251D1*
X781720Y620251D1*
X783131Y617251D1*
X784757Y614251D1*
X786106Y611251D1*
X786929Y608251D1*
X787342Y605251D1*
X787525Y602251D1*
X787599Y599251D1*
X787626Y596251D1*
X787625Y593251D1*
X787514Y590251D1*
X787052Y587251D1*
X786026Y584251D1*
X784642Y581251D1*
X786027Y578251D1*
X786888Y575251D1*
X787324Y572251D1*
X787518Y569251D1*
X787596Y566251D1*
X787626Y563251D1*
X787636Y560251D1*
X787640Y557251D1*
X787641Y554251D1*
X787630Y551251D1*
X787524Y548251D1*
X787142Y545251D1*
X786412Y542251D1*
X785537Y539251D1*
X784620Y536251D1*
X783518Y533251D1*
X782227Y530251D1*
X780828Y527251D1*
X779378Y524251D1*
X778001Y521251D1*
X776899Y518251D1*
X776215Y515251D1*
X775760Y512251D1*
X775122Y509251D1*
X773948Y506251D1*
X772320Y503251D1*
X770508Y500251D1*
X768369Y497251D1*
X765464Y494251D1*
X761441Y491251D1*
X756132Y488251D1*
X749678Y485251D1*
X742642Y482251D1*
X694642Y629251D2*
X697642Y626251D1*
X700642Y623251D1*
Y629251D2*
X703642Y626251D1*
X706642Y623251D1*
X763642Y626251D2*
X763178Y623251D1*
X762434Y620251D1*
X761658Y617251D1*
X761144Y614251D1*
X760971Y611251D1*
X761237Y608251D1*
X762008Y605251D1*
X763140Y602251D1*
X764375Y599251D1*
X765428Y596251D1*
X766128Y593251D1*
X766642Y590251D1*
X769642Y626251D2*
Y623251D1*
X769653Y620251D1*
X769759Y617251D1*
X770153Y614251D1*
X770977Y611251D1*
X772128Y608251D1*
X773370Y605251D1*
X774418Y602251D1*
X775056Y599251D1*
X775282Y596251D1*
X775035Y593251D1*
X774248Y590251D1*
X772908Y587251D1*
X770910Y584251D1*
X768417Y581251D1*
X766123Y578251D1*
X764352Y575251D1*
X762801Y572251D1*
X761077Y569251D1*
X759013Y566251D1*
X754168Y563251D1*
X747461Y560251D1*
X739642Y557251D1*
X688642Y623251D2*
X691166Y620251D1*
X693317Y617251D1*
X695146Y614251D1*
X696797Y611251D1*
X698355Y608251D1*
X699880Y605251D1*
X701386Y602251D1*
X702891Y599251D1*
X704390Y596251D1*
X705893Y593251D1*
X707390Y590251D1*
X708893Y587251D1*
X710391Y584251D1*
X711893Y581251D1*
X713402Y578251D1*
X714998Y575251D1*
X716796Y572251D1*
X718846Y569251D1*
X721172Y566251D1*
X723989Y563251D1*
X727250Y560251D1*
X730642Y557251D1*
X694642Y623251D2*
X697642Y620251D1*
X700642Y617251D1*
X712642Y623251D2*
X713117Y620251D1*
X713966Y617251D1*
X715137Y614251D1*
X716486Y611251D1*
X717929Y608251D1*
X719413Y605251D1*
X720984Y602251D1*
X722732Y599251D1*
X724642Y596251D1*
X718642Y623251D2*
X726577Y620251D1*
X733470Y617251D1*
X739199Y614251D1*
X743943Y611251D1*
X747887Y608251D1*
X751333Y605251D1*
X754524Y602251D1*
X757599Y599251D1*
X760627Y596251D1*
X763637Y593251D1*
X766642Y590251D1*
X706642Y620251D2*
X703642Y617251D1*
X709642Y620251D2*
X710117Y617251D1*
X710966Y614251D1*
X712137Y611251D1*
X713498Y608251D1*
X715045Y605251D1*
X716906Y602251D1*
X719172Y599251D1*
X721642Y596251D1*
X679642Y602251D2*
X676642Y599251D1*
X679642Y602251D2*
X682642Y599251D1*
X673642D2*
X670642Y596251D1*
X667642Y593251D1*
X664642Y590251D1*
X676642Y596251D2*
X674679Y593251D1*
X672689Y590251D1*
X670757Y587251D1*
X669259Y584251D1*
X668315Y581251D1*
X667642Y578251D1*
X655642Y596251D2*
X652642Y593251D1*
X649642Y590251D1*
X646642Y587251D1*
X643642Y584251D1*
X655642Y596251D2*
X658642Y593251D1*
X661642Y590251D1*
X688642Y593251D2*
X691642Y590251D1*
X694642Y587251D1*
Y593251D2*
X697642Y590251D1*
X700642Y587251D1*
X685642Y590251D2*
X682756Y587251D1*
X680152Y584251D1*
X677988Y581251D1*
X676257Y578251D1*
X674999Y575251D1*
X674264Y572251D1*
X673902Y569251D1*
X673755Y566251D1*
X673808Y563251D1*
X674272Y560251D1*
X675375Y557251D1*
X676989Y554251D1*
X678885Y551251D1*
X681275Y548251D1*
X684272Y545251D1*
X687275Y542251D1*
X689674Y539251D1*
X691642Y536251D1*
X687797Y533251D1*
X684923Y530251D1*
X682642Y527251D1*
X688642Y590251D2*
X689220Y587251D1*
X690348Y584251D1*
X691832Y581251D1*
X693021Y578251D1*
X693730Y575251D1*
X693315Y572251D1*
X693056Y569251D1*
X693323Y566251D1*
X693955Y563251D1*
X694860Y560251D1*
X696330Y557251D1*
X698654Y554251D1*
X702136Y551251D1*
X706987Y548251D1*
X712642Y545251D1*
X708088Y542251D1*
X704101Y539251D1*
X700642Y536251D1*
X652642Y584251D2*
X655642Y581251D2*
X654048Y578251D1*
X652642Y575251D1*
X661642Y581251D2*
X660257Y578251D1*
X659407Y575251D1*
X659076Y572251D1*
X659277Y569251D1*
X660023Y566251D1*
X661156Y563251D1*
X662493Y560251D1*
X663919Y557251D1*
X665298Y554251D1*
X666503Y551251D1*
X667556Y548251D1*
X668601Y545251D1*
X669415Y542251D1*
X669861Y539251D1*
X669226Y536251D1*
X668203Y533251D1*
X666824Y530251D1*
X663103Y527251D1*
X658642Y524251D1*
X661642Y578251D2*
X634642D2*
X637642Y575251D1*
X640642Y572251D1*
X643642Y569251D1*
X640756Y566251D1*
X638143Y563251D1*
X635887Y560251D1*
X633780Y557251D1*
X631642Y554251D1*
X646642Y578251D2*
X649642Y575251D1*
X703642Y578251D2*
X700642Y575251D1*
X703642Y578251D2*
X706642Y575251D1*
X775642D2*
X775178Y572251D1*
X774434Y569251D1*
X773658Y566251D1*
X773132Y563251D1*
X772842Y560251D1*
X772609Y557251D1*
X772162Y554251D1*
X771318Y551251D1*
X770159Y548251D1*
X768903Y545251D1*
X767749Y542251D1*
X766704Y539251D1*
X765538Y536251D1*
X764133Y533251D1*
X762449Y530251D1*
X760660Y527251D1*
X759233Y524251D1*
X758364Y521251D1*
X757832Y518251D1*
X757250Y515251D1*
X756341Y512251D1*
X755072Y509251D1*
X753468Y506251D1*
X751642Y503251D1*
X781642Y575251D2*
Y572251D1*
Y569251D1*
Y566251D1*
Y563251D1*
Y560251D1*
X781630Y557251D1*
X781525Y554251D1*
X781142Y551251D1*
X780412Y548251D1*
X779537Y545251D1*
X778620Y542251D1*
X777506Y539251D1*
X776122Y536251D1*
X774445Y533251D1*
X772659Y530251D1*
X771220Y527251D1*
X770258Y524251D1*
X769438Y521251D1*
X768426Y518251D1*
X767176Y515251D1*
X765676Y512251D1*
X763683Y509251D1*
X760927Y506251D1*
X757642Y503251D1*
X700642Y572251D2*
X700653Y569251D1*
X700782Y566251D1*
X701099Y563251D1*
X702602Y560251D1*
X705894Y557251D1*
X709642Y554251D1*
X706642Y572251D2*
X706689Y569251D1*
X706829Y566251D1*
X708235Y563251D1*
X712911Y560251D1*
X718642Y557251D1*
X715642Y554251D1*
X649642Y563251D2*
X648616Y560251D1*
X647723Y557251D1*
X647155Y554251D1*
X646861Y551251D1*
X646728Y548251D1*
X646672Y545251D1*
X646642Y542251D1*
X655642Y557251D2*
X653782Y554251D1*
X652061Y551251D1*
X650377Y548251D1*
X648579Y545251D1*
X646642Y542251D1*
X640642Y554251D2*
Y551251D2*
X639257Y548251D1*
X638384Y545251D1*
X637842Y542251D1*
X637255Y539251D1*
X636343Y536251D1*
X635073Y533251D1*
X633468Y530251D1*
X631642Y527251D1*
X727642Y551251D2*
X724642Y548251D1*
X721642Y545251D1*
X745642Y551251D2*
X739642Y548251D1*
X733642Y545251D1*
X748642D2*
Y542251D1*
Y539251D1*
Y536251D1*
Y533251D1*
Y530251D1*
Y527251D1*
X754642Y545251D2*
Y542251D1*
Y539251D1*
Y536251D1*
Y533251D1*
Y530251D1*
Y527251D1*
X718642Y542251D2*
X715642Y539251D1*
X712642Y536251D1*
X718642Y542251D2*
X721527Y539251D1*
X724131Y536251D1*
X726295Y533251D1*
X728026Y530251D1*
X729285Y527251D1*
X730020Y524251D1*
X730383Y521251D1*
X730547Y518251D1*
X730642Y515251D1*
X748642Y542251D2*
X741296Y539251D1*
X735454Y536251D1*
X730642Y533251D1*
X732490Y530251D1*
X734096Y527251D1*
X735320Y524251D1*
X736144Y521251D1*
X736884Y518251D1*
X737760Y515251D1*
X738600Y512251D1*
X739193Y509251D1*
X739642Y506251D1*
X745642Y542251D2*
Y539251D1*
Y536251D1*
Y533251D1*
Y530251D1*
Y527251D1*
Y524251D1*
X745653Y521251D1*
X745768Y518251D1*
X746231Y515251D1*
X747257Y512251D1*
X748642Y509251D1*
X745642Y506251D1*
X649642Y530251D2*
X640642Y527251D1*
X655642Y530251D2*
X654235Y527251D1*
X652642Y524251D1*
X691642Y527251D2*
X694642Y524251D2*
X699246Y521251D1*
X704319Y518251D1*
X709642Y515251D1*
X748642Y518251D2*
X751642Y515251D1*
X670642Y512251D2*
X665117Y509251D1*
X659978Y506251D1*
X655254Y503251D1*
X650998Y500251D1*
X647264Y497251D1*
X643913Y494251D1*
X640869Y491251D1*
X638269Y488251D1*
X636269Y485251D1*
X634642Y482251D1*
X679642Y512251D2*
X674745Y509251D1*
X670850Y506251D1*
X667642Y503251D1*
X673642Y506251D2*
X670642Y503251D1*
X676642Y506251D2*
X680117Y503251D1*
X683990Y500251D1*
X688380Y497251D1*
X693578Y494251D1*
X699817Y491251D1*
X706642Y488251D1*
X709642Y503251D2*
X709630Y500251D1*
X709516Y497251D1*
X709052Y494251D1*
X708027Y491251D1*
X706642Y488251D1*
X712642Y503251D2*
X715516Y500251D1*
X718014Y497251D1*
X719807Y494251D1*
X720934Y491251D1*
X721888Y488251D1*
X723133Y485251D1*
X724642Y482251D1*
X621375Y1303255D2*
D35*
X618998Y1308008D1*
X614190Y1312816D1*
X609437Y1315193D1*
X599875D1*
X595066Y1312816D1*
X590313Y1308008D1*
X587881Y1303255D1*
X585505Y1296070D1*
Y1284076D1*
X587881Y1276946D1*
X590313Y1272138D1*
X595066Y1267385D1*
X599875Y1264953D1*
X609437D1*
X614190Y1267385D1*
X618998Y1272138D1*
X621375Y1276946D1*
X636814Y1305576D2*
X641622Y1308008D1*
X648807Y1315138D1*
Y1264953D1*
X610625Y1153270D2*
X608248Y1158024D1*
X603440Y1162832D1*
X598687Y1165209D1*
X589125D1*
X584317Y1162832D1*
X579563Y1158024D1*
X577132Y1153270D1*
X574755Y1146085D1*
Y1134092D1*
X577132Y1126962D1*
X579563Y1122154D1*
X584317Y1117400D1*
X589125Y1114969D1*
X598687D1*
X603440Y1117400D1*
X608248Y1122154D1*
X610625Y1126962D1*
X628496Y1153215D2*
Y1155592D1*
X630873Y1160400D1*
X633249Y1162777D1*
X638058Y1165153D1*
X647619D1*
X652372Y1162777D1*
X654749Y1160400D1*
X657181Y1155592D1*
Y1150839D1*
X654749Y1146030D1*
X649996Y1138900D1*
X626064Y1114969D1*
X659557D1*
X785606Y1153270D2*
X783230Y1158024D1*
X778421Y1162832D1*
X773668Y1165209D1*
X764107D1*
X759298Y1162832D1*
X754545Y1158024D1*
X752113Y1153270D1*
X749737Y1146085D1*
Y1134092D1*
X752113Y1126962D1*
X754545Y1122154D1*
X759298Y1117400D1*
X764107Y1114969D1*
X773668D1*
X778421Y1117400D1*
X783230Y1122154D1*
X785606Y1126962D1*
X805854Y1165153D2*
X832107D1*
X817792Y1146030D1*
X824977D1*
X829731Y1143654D1*
X832107Y1141277D1*
X834539Y1134092D1*
Y1129339D1*
X832107Y1122154D1*
X827354Y1117345D1*
X820169Y1114969D1*
X812984D1*
X805854Y1117345D1*
X803478Y1119777D1*
X801046Y1124530D1*
X769559Y1291261D2*
X791059D1*
X798244Y1293693D1*
X800676Y1296070D1*
X803053Y1300823D1*
Y1305631D1*
X800676Y1310384D1*
X798244Y1312816D1*
X791059Y1315193D1*
X769559D1*
Y1264953D1*
X786306Y1291261D2*
X803053Y1264953D1*
X818492Y1305576D2*
X823300Y1308008D1*
X830485Y1315138D1*
Y1264953D1*
X677603Y958684D2*
Y922814D1*
X679979Y915629D1*
X684788Y910876D1*
X691973Y908444D1*
X696726D1*
X703911Y910876D1*
X708719Y915629D1*
X711096Y922814D1*
Y958684D1*
X726535Y949067D2*
X731344Y951499D1*
X738529Y958629D1*
Y908444D1*
X446618Y1330883D2*
D36*
Y1300286D1*
X444716Y1294538D1*
X442771Y1292637D1*
X438968Y1290691D1*
X435122D1*
X431319Y1292637D1*
X429418Y1294538D1*
X427472Y1300286D1*
Y1304089D1*
X458969Y1323190D2*
X462816Y1325135D1*
X468564Y1330839D1*
Y1290691D1*
X946565Y1330883D2*
Y1300286D1*
X944664Y1294538D1*
X942718Y1292637D1*
X938916Y1290691D1*
X935069D1*
X931267Y1292637D1*
X929365Y1294538D1*
X927420Y1300286D1*
Y1304089D1*
X960862Y1321288D2*
Y1323190D1*
X962763Y1327036D1*
X964665Y1328938D1*
X968511Y1330839D1*
X976161D1*
X979963Y1328938D1*
X981865Y1327036D1*
X983810Y1323190D1*
Y1319387D1*
X981865Y1315540D1*
X978062Y1309837D1*
X958917Y1290691D1*
X985711D1*
X641747Y450227D2*
X637945Y454074D1*
X632197Y455975D1*
X624547D1*
X618799Y454074D1*
X614953Y450227D1*
Y446424D1*
X616898Y442578D1*
X618799Y440676D1*
X622602Y438775D1*
X634098Y434928D1*
X637945Y433027D1*
X639846Y431082D1*
X641747Y427279D1*
Y421531D1*
X637945Y417729D1*
X632197Y415783D1*
X624547D1*
X618799Y417729D1*
X614953Y421531D1*
X654099Y455975D2*
Y415783D1*
X671343D1*
X677091Y417729D1*
X678992Y419630D1*
X680893Y423432D1*
Y429180D1*
X678992Y433027D1*
X677091Y434928D1*
X671343Y436830D1*
X677091Y438775D1*
X678992Y440676D1*
X680893Y444479D1*
Y448326D1*
X678992Y452128D1*
X677091Y454074D1*
X671343Y455975D1*
X654099D1*
Y436830D2*
X671343D1*
X693245Y415783D2*
X720039Y455931D1*
X759186Y450227D2*
X755383Y454074D1*
X749635Y455975D1*
X741986D1*
X736238Y454074D1*
X732391Y450227D1*
Y446424D1*
X734336Y442578D1*
X736238Y440676D1*
X740040Y438775D1*
X751536Y434928D1*
X755383Y433027D1*
X757284Y431082D1*
X759186Y427279D1*
Y421531D1*
X755383Y417729D1*
X749635Y415783D1*
X741986D1*
X736238Y417729D1*
X732391Y421531D1*
X771537Y434928D2*
X788781D1*
X794485Y436830D1*
X796430Y438775D1*
X798332Y442578D1*
Y448326D1*
X796430Y452128D1*
X794485Y454074D1*
X788781Y455975D1*
X771537D1*
Y415783D1*
M02*
